<?xml version="1.0" encoding="utf-8"?>
<!-- Generator: Adobe Illustrator 23.1.0, SVG Export Plug-In . SVG Version: 6.00 Build 0)  -->
<svg version="1.1" id="Layer_1" xmlns="http://www.w3.org/2000/svg" xmlns:xlink="http://www.w3.org/1999/xlink" x="0px" y="0px"
	 viewBox="0 0 799.89 149.91" style="enable-background:new 0 0 799.89 149.91;" xml:space="preserve">
<style type="text/css">
	.st0{fill:#FB3640;}
	.st1{fill:#3174AD;}
</style>
<g>
	<g>
		<g>
			<path class="st0" d="M49.56,68.43c0-1.37-1.11-2.47-2.47-2.47h-8.64c-1.37,0-2.47,1.11-2.47,2.47v8.63
				c0,1.37,1.11,2.47,2.47,2.47h8.64c1.37,0,2.47-1.11,2.47-2.47L49.56,68.43L49.56,68.43z"/>
			<path class="st0" d="M71.14,68.43c0-1.37-1.11-2.47-2.47-2.47h-8.64c-1.37,0-2.47,1.11-2.47,2.47v8.63
				c0,1.37,1.11,2.47,2.47,2.47h8.64c1.36,0,2.47-1.11,2.47-2.47V68.43z"/>
			<path class="st0" d="M92.72,68.43c0-1.37-1.11-2.47-2.47-2.47h-8.64c-1.37,0-2.47,1.11-2.47,2.47v8.63
				c0,1.37,1.11,2.47,2.47,2.47h8.64c1.37,0,2.47-1.11,2.47-2.47V68.43z"/>
			<path class="st0" d="M49.56,90.01c0-1.37-1.11-2.47-2.47-2.47h-8.64c-1.37,0-2.47,1.11-2.47,2.47v8.63
				c0,1.37,1.11,2.47,2.47,2.47h8.64c1.37,0,2.47-1.11,2.47-2.47L49.56,90.01L49.56,90.01z"/>
			<path class="st0" d="M71.14,90.01c0-1.37-1.11-2.47-2.47-2.47h-8.64c-1.37,0-2.47,1.11-2.47,2.47v8.63
				c0,1.37,1.11,2.47,2.47,2.47h8.64c1.36,0,2.47-1.11,2.47-2.47V90.01z"/>
			<path class="st0" d="M92.72,90.01c0-1.37-1.11-2.47-2.47-2.47h-8.64c-1.37,0-2.47,1.11-2.47,2.47v8.63
				c0,1.37,1.11,2.47,2.47,2.47h8.64c1.36,0,2.47-1.11,2.47-2.47L92.72,90.01L92.72,90.01z"/>
			<path class="st1" d="M108.16,20.42v13.19c0,5.96-4.84,10.76-10.8,10.76h-6.81c-5.96,0-10.86-4.8-10.86-10.76V20.38H49v13.24
				c0,5.96-4.9,10.76-10.86,10.76h-6.81c-5.96,0-10.8-4.8-10.8-10.76V20.42c-5.21,0.16-9.49,4.47-9.49,9.76v77.29
				c0,5.4,4.37,9.83,9.77,9.83h87.06c5.39,0,9.77-4.44,9.77-9.83V30.19C117.65,24.89,113.37,20.58,108.16,20.42z M105,102.66
				c0,2.33-1.89,4.22-4.22,4.22H27.74c-2.33,0-4.22-1.89-4.22-4.22V62.74c0-2.33,1.89-4.23,4.22-4.23h73.04
				c2.33,0,4.22,1.89,4.22,4.23L105,102.66L105,102.66z"/>
			<path class="st1" d="M31.31,37.31h6.74c2.04,0,3.7-1.66,3.7-3.7V11.99c0-2.04-1.66-3.7-3.7-3.7h-6.74c-2.04,0-3.7,1.66-3.7,3.7
				v21.62C27.6,35.65,29.26,37.31,31.31,37.31z"/>
			<path class="st1" d="M90.47,37.31h6.74c2.04,0,3.7-1.66,3.7-3.7V11.99c0-2.04-1.66-3.7-3.7-3.7h-6.74c-2.04,0-3.7,1.66-3.7,3.7
				v21.62C86.77,35.65,88.42,37.31,90.47,37.31z"/>
		</g>
	</g>
	<g>
		<path class="st1" d="M152.24,103.42l7.76-17.2c8.32,6.06,20.73,10.29,32.57,10.29c13.54,0,19.04-4.51,19.04-10.58
			c0-18.47-57.39-5.78-57.39-42.44c0-16.78,13.54-30.74,41.6-30.74c12.41,0,25.1,2.96,34.26,8.74l-7.05,17.34
			c-9.17-5.22-18.61-7.76-27.36-7.76c-13.54,0-18.75,5.08-18.75,11.28c0,18.19,57.39,5.64,57.39,41.88c0,16.5-13.68,30.6-41.88,30.6
			C176.77,114.84,160.98,110.19,152.24,103.42z"/>
		<path class="st1" d="M242.76,75.22c0-22.84,17.63-39.06,42.3-39.06c15.93,0,28.48,6.91,33.98,19.32l-17.06,9.17
			c-4.09-7.19-10.15-10.43-17.06-10.43c-11.14,0-19.88,7.76-19.88,21.01c0,13.25,8.74,21.01,19.88,21.01
			c6.91,0,12.97-3.1,17.06-10.43l17.06,9.31c-5.5,12.13-18.05,19.18-33.98,19.18C260.38,114.28,242.76,98.06,242.76,75.22z"/>
		<path class="st1" d="M408.72,69.72v43.43h-22V73.1c0-12.27-5.64-17.91-15.37-17.91c-10.58,0-18.19,6.49-18.19,20.45v37.51h-22
			V8.52h22v36.66c5.92-5.92,14.38-9.02,24.11-9.02C395.18,36.16,408.72,46.59,408.72,69.72z"/>
		<path class="st1" d="M486.69,89.32l11.7,12.69c-7.05,8.04-17.63,12.27-31.3,12.27c-26.23,0-43.29-16.5-43.29-39.06
			c0-22.7,17.2-39.06,40.61-39.06c21.43,0,39.06,14.1,39.2,38.35l-56.12,10.86c3.24,7.47,10.29,11.28,20.16,11.28
			C475.69,96.65,481.47,94.25,486.69,89.32z M445.37,72.96l36.94-7.19c-2.12-7.75-8.74-12.97-17.91-12.97
			C453.41,52.8,445.79,60.13,445.37,72.96z"/>
		<path class="st1" d="M595.68,8.52v104.63h-21.01v-8.74c-5.5,6.63-13.54,9.87-23.69,9.87c-21.43,0-37.93-15.23-37.93-39.06
			s16.5-39.06,37.93-39.06c9.31,0,17.2,2.96,22.7,9.17V8.52H595.68z M574.11,75.22c0-13.11-8.46-21.01-19.32-21.01
			c-11,0-19.46,7.9-19.46,21.01s8.46,21.01,19.46,21.01C565.65,96.23,574.11,88.33,574.11,75.22z"/>
		<path class="st1" d="M694.24,37.29v63.17c0,28.2-15.23,41.17-42.58,41.17c-14.38,0-28.34-3.53-37.23-10.43l8.74-15.79
			c6.49,5.22,17.06,8.6,26.79,8.6c15.51,0,22.28-7.05,22.28-20.73v-3.24c-5.78,6.35-14.1,9.45-23.97,9.45
			c-21.01,0-37.93-14.52-37.93-36.66c0-22.14,16.92-36.66,37.93-36.66c10.58,0,19.32,3.53,25.1,10.86v-9.73H694.24z M672.52,72.82
			c0-11.14-8.32-18.61-19.88-18.61s-20.02,7.47-20.02,18.61c0,11.14,8.46,18.61,20.02,18.61S672.52,83.96,672.52,72.82z"/>
		<path class="st1" d="M771.93,89.32l11.7,12.69c-7.05,8.04-17.63,12.27-31.3,12.27c-26.23,0-43.29-16.5-43.29-39.06
			c0-22.7,17.2-39.06,40.61-39.06c21.43,0,39.06,14.1,39.2,38.35l-56.12,10.86c3.24,7.47,10.29,11.28,20.16,11.28
			C760.93,96.65,766.71,94.25,771.93,89.32z M730.61,72.96l36.94-7.19c-2.12-7.75-8.74-12.97-17.91-12.97
			C738.65,52.8,731.03,60.13,730.61,72.96z"/>
	</g>
</g>
</svg>
